<svg version="1.1" xmlns="http://www.w3.org/2000/svg" xmlns:xlink="http://www.w3.org/1999/xlink" width="50" height="50" viewBox="0,0,50,50"><g transform="translate(-275,-155)"><g data-paper-data="{&quot;isPaintingLayer&quot;:true}" fill-rule="nonzero" stroke-linecap="butt" stroke-linejoin="miter" stroke-miterlimit="10" stroke-dasharray="" stroke-dashoffset="0" style="mix-blend-mode: normal"><path d="M276,204v-48h48v48z" fill="#abff00" stroke="#000000" stroke-width="2"/><path d="M311.20645,197.13907c-2.5,0 -2.5,-2.5 -2.5,-2.5v-3c0,-4.30159 -0.38123,-8.38506 -0.96772,-12.59954c-0.29714,-2.13526 -0.95838,-4.05749 -1.4463,-6.06001c-5.30966,4.07162 -14.25237,6.79151 -18.29016,0.8392c-0.7089,-1.04503 -0.05035,-2.53453 -0.26353,-3.77919c-0.38283,-2.23509 -1.32744,-3.11419 -2.61241,-5.01371c0,0 -1.38675,-2.08013 0.69338,-3.46688c2.08013,-1.38675 3.46688,0.69338 3.46688,0.69338c1.76276,2.6766 2.85864,3.71966 3.38759,6.98629c0.11916,0.73588 -0.55094,1.53298 -0.26353,2.22081c0.43264,1.03544 2.75137,0.8525 3.39536,0.71193c4.11835,-0.89895 7.14933,-2.66916 9.71701,-5.62159c-0.01645,-0.45692 0.0266,-0.90055 0.21573,-1.31114c0.05652,-0.12271 0.11628,-0.24347 0.17897,-0.36246l-0.08296,-0.02765l0.98177,-2.94531c0.31417,-1.02156 1.26534,-1.76412 2.38994,-1.76412c1.38071,0 2.5,1.11929 2.5,2.5v3l-0.34036,0l0.23309,0.72446c-0.28299,0.44422 -0.55236,0.89802 -0.82221,1.35149c-0.00012,0.95296 -0.30721,2.09317 -0.08925,3.6186c0.33876,2.37094 1.63986,4.53519 1.98645,6.905c0.19295,1.3193 -0.18856,2.68007 0,4c0.14907,1.0435 0.83216,1.95936 1,3c0.04177,0.25901 0.03228,5.92044 0.03228,6.40046v3c0,0 0,2.5 -2.5,2.5z" fill="#000000" stroke="none" stroke-width="0.5"/></g></g></svg>