<svg version="1.1" xmlns="http://www.w3.org/2000/svg" xmlns:xlink="http://www.w3.org/1999/xlink" width="547.56569" height="73.97619" viewBox="0,0,547.56569,73.97619"><g transform="translate(24.85473,-291.83612)"><g data-paper-data="{&quot;isPaintingLayer&quot;:true}" fill-rule="nonzero" stroke-linecap="butt" stroke-linejoin="miter" stroke-miterlimit="10" stroke-dasharray="" stroke-dashoffset="0" style="mix-blend-mode: normal"><path d="M-23.85473,364.81231v-71.97619h545.56569v71.97619z" fill="#ffffff" stroke="#000000" stroke-width="2"/><path d="M481.39206,303.4657c1.64399,7.55703 -8.21995,8.81653 -8.21995,8.81653l-5.32512,0.66154c-5.39963,1.28844 -10.70963,2.82259 -16.19888,3.86532c-6.44693,1.22464 -13.22024,1.161 -19.70947,2.24661c-5.31783,0.88964 -9.25464,2.70076 -13.66487,5.03107c-3.17786,0.37802 -6.42992,0.48873 -9.53358,1.13407c-11.38854,2.36802 -22.22259,6.14779 -33.61026,8.51826c-1.1295,0.23512 -2.36043,-0.11278 -3.51065,0.05318c-5.46982,0.78919 -10.93252,1.65292 -16.29188,2.80396c-3.65236,0.78443 -7.09961,2.05095 -10.68893,2.99079c-8.18518,2.14323 -16.5476,3.87924 -24.91611,5.55619c-14.23974,2.85348 -29.32664,3.32992 -43.69117,6.07184c-4.73327,0.90349 -9.27886,2.33204 -14.01611,3.22322c-1.05704,0.19885 -2.19094,-0.10675 -3.26513,0.02777c-3.2323,0.40478 -6.33449,1.45862 -9.6056,1.58401c-1.78119,0.06828 -3.4441,-0.71347 -5.18291,-1.01714c-2.8192,-0.49235 -5.62743,-1.02864 -8.46962,-1.43612c-11.89175,-1.70489 -23.87868,-2.88662 -35.78851,-4.46235c-10.78171,0.04356 -21.34004,-2.2901 -32,-3.06451c-2.9866,-0.21697 -6.01382,0.2204 -9,0c-12.05265,-0.88956 -23.70805,-3.43742 -35.43584,-5.53512c-9.38177,-1.67808 -13.42129,-1.72945 -21.35539,-4.15073c-9.21536,-2.81228 -18.00463,-6.53341 -26.16718,-10.85236c-4.14384,-2.19258 -7.29419,-3.84899 -11.47409,-5.86208c-1.62549,-0.78285 -3.03964,-1.96496 -4.90497,-2.31345c0,0 -9.48683,-2.42271 -6.32456,-9.69082c3.16228,-7.26812 12.64911,-4.84541 12.64911,-4.84541c8.07197,2.24932 14.62511,6.49089 21.62094,10.21151c6.78609,3.60908 14.17372,6.7072 21.83282,9.06693c6.31563,1.94582 11.47619,2.22986 18.64461,3.51054c10.64445,1.9017 21.58707,4.39971 32.56416,5.19066c2.98682,0.21521 6.01362,-0.2188 9,0c10.67329,0.78199 21.21723,3.02647 32,3.06451c12.74129,1.57906 25.51583,2.9041 38.21149,4.73118c3.19889,0.46036 6.40014,0.94506 9.53038,1.62839c0.33922,0.07405 0.46963,0.56163 0.81709,0.51512c7.27618,-0.97404 13.85799,-2.9641 21.11316,-4.35852c6.50365,-1.24997 13.08962,-2.24424 19.68252,-3.18036c8.17311,-1.16049 16.59217,-1.37218 24.6263,-3.00583c7.74837,-1.57554 15.49806,-3.18332 23.08389,-5.16959c3.79449,-0.99354 7.44164,-2.33198 11.31107,-3.13823c6.491,-1.35249 13.10248,-2.35139 19.70812,-3.32505c0.81515,-0.12015 1.69112,0.22773 2.48935,0.05318c13.08013,-2.86028 25.14961,-7.8907 38.85617,-8.73471c7.86864,-5.1796 19.46595,-6.23336 29.30319,-7.37276c2.43066,-0.28153 4.93884,-0.21153 7.32248,-0.67211c5.35231,-1.0342 10.53408,-2.53063 15.80112,-3.79595l6.67488,-0.87071c0,0 9.86394,-1.2595 11.50793,6.29752z" fill="#000000" stroke="none" stroke-width="0.5"/></g></g></svg>