<svg version="1.1" xmlns="http://www.w3.org/2000/svg" xmlns:xlink="http://www.w3.org/1999/xlink" width="50" height="50" viewBox="0,0,50,50"><g transform="translate(-155,-155)"><g data-paper-data="{&quot;isPaintingLayer&quot;:true}" fill-rule="nonzero" stroke-linecap="butt" stroke-linejoin="miter" stroke-miterlimit="10" stroke-dasharray="" stroke-dashoffset="0" style="mix-blend-mode: normal"><path d="M156,204v-48h48v48z" fill="#abff00" stroke="#000000" stroke-width="2"/><path d="M196.57816,191.8485c0.79057,2.37171 -1.58114,3.16228 -1.58114,3.16228l-3.39011,1.09601c-3.51091,0.01537 -6.29063,0.81448 -9.60989,1.90399c-2.35187,0.77197 -4.22295,1.72683 -6.79057,1.12829h-3c-1.38071,0 -2.5,-1.11929 -2.5,-2.5c0,-1.1246 0.74256,-2.07576 1.76412,-2.38994l2.70535,-0.90178c3.44422,-2.33335 6.31661,-4.54312 9.26276,-7.47604c0.71436,-0.71116 3.11256,-2.87958 3.37504,-3.95669c0.75219,-3.08679 -0.27694,-3.93746 -1.00757,-6.57657c-0.31598,-1.14134 -0.26264,-2.39961 -0.7752,-3.46722c-1.71171,-3.56532 -8.43656,-5.7512 -11.8245,-5.73175c-0.45132,0.00259 -4.50428,-0.37323 -5.48252,0.48677c-1.6025,1.40882 -2.25378,3.62461 -3.43736,5.39998c0,0 -1.38675,2.08013 -3.46688,0.69338c-2.08013,-1.38675 -0.69338,-3.46688 -0.69338,-3.46688c0.49989,-0.74984 4.14295,-6.28077 4.56264,-6.60002c2.52719,-1.92234 5.64592,-1.52569 8.51748,-1.51323c5.28254,0.02292 13.50696,3.07536 16.1755,8.26825c0.71536,1.39206 0.78514,3.03069 1.2248,4.53278c1.08771,3.71611 2.1564,4.83735 0.99243,9.42343c-0.5736,2.26001 -3.02143,4.43315 -4.62496,6.04331c-1.15008,1.15483 -2.30036,2.20802 -3.47598,3.19916c2.31634,-0.75067 4.63827,-1.4471 7.30775,-1.43464l2.60989,-0.90399c0,0 2.37171,-0.79057 3.16228,1.58114z" fill="#000000" stroke="none" stroke-width="0.5"/></g></g></svg>