<svg version="1.1" xmlns="http://www.w3.org/2000/svg" xmlns:xlink="http://www.w3.org/1999/xlink" width="547.56569" height="129.97619" viewBox="0,0,547.56569,129.97619"><g transform="translate(35.85473,-161.83612)"><g data-paper-data="{&quot;isPaintingLayer&quot;:true}" fill-rule="nonzero" stroke-linecap="butt" stroke-linejoin="miter" stroke-miterlimit="10" stroke-dasharray="" stroke-dashoffset="0" style="mix-blend-mode: normal"><path d="M-34.85473,290.81231v-127.97619h545.56569v127.97619z" fill="#ffffff" stroke="#000000" stroke-width="2"/><path d="M107.39902,235.63162c-2.70721,1.40131 -7.03016,2.36408 -11.3531,-1.95886c-7.07107,-7.07107 0,-14.14214 0,-14.14214l8.07107,-3.92893c4.62378,0.1757 4.56517,-1.26958 9.39818,-1.87087c1.17437,-0.14611 7.99822,-0.12913 10.60182,-0.12913c3.56391,0 7.46609,-0.34232 10.98538,0.04867c3.13276,0.34804 6.11482,1.5896 9.23646,2.02626c1.21179,0.16951 2.47996,-0.18217 3.66924,0.10551c1.97212,0.47705 3.72346,1.66449 5.69134,2.15876c1.99105,0.50009 4.0801,0.4721 6.10592,0.80436c2.87799,0.47203 5.64149,1.55462 8.5335,1.93137c3.97156,0.51738 8.82871,-0.07492 12.77817,-0.07492c4.68535,0 10.74849,0.87925 15.39818,0.12913c2.52904,-0.408 5.04109,-1.05727 7.60182,-1.12913c0,0 10,0 10,10c0,10 -10,10 -10,10c-1.48819,-0.13744 -2.91637,0.67636 -4.39818,0.87087c-1.85188,0.24309 -3.73417,0.10834 -5.60182,0.12913c-9.15144,0.10185 -19.11257,1.03638 -28.22183,-0.07492c-3.20619,-0.39115 -6.28178,-1.52992 -9.4665,-2.06863c-2.62409,-0.44388 -5.31148,-0.55291 -7.89408,-1.19564c-1.51563,-0.37719 -2.79758,-1.4462 -4.30866,-1.84124c-0.75243,-0.19671 -1.56116,0.21756 -2.33076,0.10551c-1.28659,-0.18731 -7.05794,-1.7842 -8.76354,-1.97374c-2.8816,-0.32024 -6.10782,0.04867 -9.01462,0.04867c-2.46643,0 -4.94027,-0.3341 -7.39818,-0.12913c-2.10089,0.1752 -3.91092,1.7168 -6,2c-1.09918,0.14901 -2.20827,0.16969 -3.31979,0.15905z" fill="#000000" stroke="none" stroke-width="0.5"/><path d="M84.94734,242.65729c2.39896,0.25825 9.16965,1.71598 9.16965,9.9444c0,10 -10,10 -10,10l-7.547,-1.6795c-2.85592,-1.93077 -5.62893,-2.70747 -8.63157,-4.23537c-5.69115,-2.89596 -10.19561,-7.07978 -15.63352,-10.31907c-4.63833,-2.37745 -9.83223,-3.22933 -14.20718,-6.11696c-2.25003,-1.4851 -5.16077,-2.63646 -6.28961,-5.0847c-4.79556,-10.40068 -3.72833,-14.53188 4.05157,-21.0709c1.79172,-1.50595 4.6186,-1.13163 6.61624,-2.35129c1.42249,-0.8685 2.50638,-2.26049 4,-3c2.24394,-1.111 4.75397,-1.58093 7.08726,-2.48942c11.46781,-4.46512 23.2394,-7.60407 35.25628,-10.38527c7.70089,-1.7823 13.58959,-2.26751 21.29753,-2.26751c0,0 10,0 10,10c0,10 -10,10 -10,10c-2.96968,0 -5.9664,-0.46103 -8.90883,-0.05971c-7.69344,1.04931 -15.23012,3.90123 -22.73505,5.77818c-3.66493,0.91658 -7.45347,1.41923 -11.0062,2.70374c-2.31934,0.83857 -4.48977,2.05131 -6.7961,2.925c-1.47268,0.55788 -3.0973,0.71283 -4.53745,1.33506c1.96317,0.78062 3.90192,1.61985 5.79573,2.55167c4.89745,2.95317 9.24912,7.19542 14.36648,9.68093c2.9316,1.42388 5.82771,2.60378 8.65178,4.14073z" fill="#000000" stroke="none" stroke-width="0.5"/><path d="M406.76396,267.81322c-2.41824,1.65793 -7.56814,4.00943 -12.71804,-1.14046c-7.07107,-7.07107 0,-14.14214 0,-14.14214l6.10991,-3.73474c9.42996,-1.8437 18.31229,-5.69955 27.69038,-7.93296c3.23775,-0.77108 6.67781,-0.63835 9.8465,-1.65668c2.61118,-0.83916 4.97473,-2.32891 7.21895,-3.95475c-0.94652,-0.5499 -1.90088,-1.08259 -2.89123,-1.52741c-2.37518,-1.06683 -17.20384,-6.84416 -19.51589,-7.46968c-3.50547,-0.9484 -7.19101,-1.08209 -10.72235,-1.92911c-3.09434,-0.74221 -5.98872,-2.24857 -9.11733,-2.82961c-1.54416,-0.28678 -3.24427,-0.3947 -4.99633,-0.37549c1.13496,0.22162 2.27111,0.44827 3.40963,0.67568l0.03884,-0.19419c0,0 10,0 10,10c0,10 -10,10 -10,10l-3.96116,-0.19419c-6.6245,-1.32671 -13.27258,-2.86103 -20.03884,-2.80581c-26,0 -52,0 -78,0c0,0 -10,0 -10,-10c0,-10 10,-10 10,-10c25.92719,0 51.85439,0 77.78158,0c-0.6972,-1.05279 -1.25498,-2.37679 -1.58739,-4.03884c-1.96116,-9.80581 7.84465,-11.76697 7.84465,-11.76697c6.98141,-1.3383 15.34104,-2.28663 22.41329,-1.0882c3.72525,0.63126 7.20576,2.30074 10.88267,3.17039c3.71945,0.87971 7.59209,1.05855 11.27765,2.07089c3.34438,0.91862 18.88412,6.90765 22.48411,8.53032c3.75512,1.6926 18.60241,8.44291 20.14223,13.29557c1.44105,4.54139 -0.41956,9.76841 -2.43838,14.08411c-1.00174,2.14146 -4.07666,2.41726 -5.95332,3.85515c-2.89603,2.21894 -5.6349,4.69109 -8.79364,6.51675c-2.845,1.64432 -5.52007,3.70267 -8.62918,4.76627c-3.90368,1.33542 -8.14326,1.37373 -12.1535,2.34332c-8.7052,2.10474 -16.95887,5.40933 -25.62381,7.47277z" fill="#000000" stroke="none" stroke-width="0.5"/></g></g></svg>