<svg version="1.1" xmlns="http://www.w3.org/2000/svg" xmlns:xlink="http://www.w3.org/1999/xlink" width="275.56569" height="191.97619" viewBox="0,0,275.56569,191.97619"><g transform="translate(-240.93279,29.12968)"><g data-paper-data="{&quot;isPaintingLayer&quot;:true}" fill-rule="nonzero" stroke-linecap="butt" stroke-linejoin="miter" stroke-miterlimit="10" stroke-dasharray="" stroke-dashoffset="0" style="mix-blend-mode: normal"><path d="M241.93279,161.84651v-189.97619h273.56569v189.97619z" fill="#ffffff" stroke="#000000" stroke-width="2"/><path d="M321.19962,140.00322c-4.46618,-7.93974 1.00476,-16.04066 4.38712,-22.72114c1.53957,-3.0408 1.76281,-6.54373 2.95731,-9.63036c4.60586,-11.90171 8.76341,-26.34144 20.10959,-33.56173c5.3665,-3.41505 13.07928,-5.22875 19.5112,-6.4082c2.8845,-0.52895 5.18531,-2.34968 8.40336,-1.77254c12.10429,2.17085 12.12784,10.24763 5,18.75c-0.65222,0.77799 -2.01209,0.36164 -2.9547,0.73868c-3.73654,1.49461 -8.34459,2.81627 -12.67162,3.93776c-1.23458,0.31999 -3.1709,0.02291 -4.31271,0.54733c-4.92822,2.2635 -7.33436,7.33535 -9.30808,12.17775c-3.16726,7.77062 -5.18111,15.6868 -8.41199,23.32171c-1.02972,2.43333 -3.47718,4.41743 -3.95949,7.07714c-0.06504,0.35868 -0.08391,0.78672 -0.08219,1.25552c0.05423,0.42171 0.08219,0.85164 0.08219,1.28809c0,0.24527 -0.00883,0.48847 -0.02619,0.72931c-0.37352,5.18237 -4.69623,9.2707 -9.97381,9.2707c-3.25429,0 -6.1455,-1.55449 -7.97162,-3.96144c-0.29804,-0.30786 -0.56045,-0.65113 -0.77838,-1.03856z" fill="#000000" stroke="none" stroke-width="0.5"/><path d="M358.0324,50.95845c1.44612,-2.53072 1.94275,-6.01734 3.96144,-7.97162c0.30786,-0.29804 0.65113,-0.56045 1.03856,-0.77838c6.45006,-3.62823 13.89185,0.07634 20.0215,1.86931c6.28768,1.83919 12.60856,3.61481 19.03098,4.90713c5.65879,1.13867 21.23422,2.85852 24.23435,8.85878c0.49485,0.9897 -0.09987,2.24499 0.18414,3.31444c0.28401,1.06945 1.42317,1.86428 1.48455,2.9691c0.22701,4.08624 -4.26181,8.08425 -6.96604,10.36087c-7.31725,6.16017 -13.33304,13.5735 -20.23707,20.28643c-1.09147,1.06126 -4.73208,6.33746 -5.49445,6.59158c-3.18689,1.0623 -7.05768,2.06133 -10.06231,0.55902c-14.27988,-7.13994 0.78425,-20.0969 5.91598,-25.22862c1.53118,-1.53118 2.59464,-3.13087 3.96049,-4.57531c0.9817,-1.03818 1.96678,-2.09816 2.723,-3.31046c0.07303,-0.11708 0.35408,-0.20535 0.26941,-0.31431c-1.61341,-2.07606 -5.09638,-1.296 -7.64228,-1.95292c-10.34702,-2.66986 -10.72326,-2.81318 -18.03173,-5.26251c-2.3481,-0.78693 -8.11956,0.65163 -9.46585,-1.70437z" fill="#000000" stroke="none" stroke-width="0.5"/></g></g></svg>