<svg version="1.1" xmlns="http://www.w3.org/2000/svg" xmlns:xlink="http://www.w3.org/1999/xlink" width="50" height="50" viewBox="0,0,50,50"><g transform="translate(-95,-155)"><g data-paper-data="{&quot;isPaintingLayer&quot;:true}" fill-rule="nonzero" stroke-linecap="butt" stroke-linejoin="miter" stroke-miterlimit="10" stroke-dasharray="" stroke-dashoffset="0" style="mix-blend-mode: normal"><path d="M96,204v-48h48v48z" fill="#abff00" stroke="#000000" stroke-width="2"/><path d="M139.70645,196.63907c0,2.5 -2.5,2.5 -2.5,2.5c-2.35954,0 -4.90851,0 -7.53032,0c-0.10022,0.69034 -0.49662,1.47755 -1.67911,1.87171c-2.37171,0.79057 -3.16228,-1.58114 -3.16228,-1.58114l-0.09686,-0.29057c-4.34381,0 -8.68883,0 -12.53144,0c0,0 -2.5,0 -2.5,-2.5c0,-2.5 2.5,-2.5 2.5,-2.5c3.62053,0 7.24106,0 10.86159,0c-2.55373,-7.47471 -6.0951,-15.27486 -7.65216,-22.96601c-0.20962,-1.03545 0.3632,-2.18509 -0.02077,-3.1693c-0.20363,-0.52196 -0.27891,1.11213 -0.60369,1.56867c-0.49892,0.70135 -1.2086,1.2258 -1.81721,1.83441c-1.62535,1.62535 -3.47251,3.03129 -5.38102,4.31236c0,0 -2.08013,1.38675 -3.46688,-0.69338c-1.38675,-2.08013 0.69338,-3.46688 0.69338,-3.46688c2.45955,-1.62687 4.37293,-4.38007 6.80178,-5.85323c1.68689,-1.02314 3.60066,-3.24866 5.39631,-2.43133c2.14053,0.97431 2.21801,4.1546 3.14151,6.31753c3.23241,7.57066 5.30133,15.904 7.90569,23.71708l0.27669,0.83007c2.28826,0 4.57651,0 6.86477,0h2c0,0 2.5,0 2.5,2.5z" fill="#000000" stroke="none" stroke-width="0.5"/></g></g></svg>