<svg version="1.1" xmlns="http://www.w3.org/2000/svg" xmlns:xlink="http://www.w3.org/1999/xlink" width="50" height="50" viewBox="0,0,50,50"><g transform="translate(-334.99999,-155)"><g data-paper-data="{&quot;isPaintingLayer&quot;:true}" fill-rule="nonzero" stroke-linecap="butt" stroke-linejoin="miter" stroke-miterlimit="10" stroke-dasharray="" stroke-dashoffset="0" style="mix-blend-mode: normal"><path d="M336,204v-48h48v48z" fill="#abff00" stroke="#000000" stroke-width="2"/><path d="M373.70645,165.63907c0,2.5 -2.5,2.5 -2.5,2.5l-1.79057,-0.12829c-3.9304,-1.36138 -7.47554,-0.32716 -11.51489,-0.89044c-1.12128,-0.15636 -2.23544,-0.40695 -3.35235,-0.61579c0.85159,2.22455 1.76134,4.54223 2.12553,6.73406c0.25275,1.52118 0.52317,3.13433 0.38903,4.67269c1.0474,-0.41494 2.18205,-0.59268 2.35268,-0.64394c1.36259,-0.40933 2.72018,-1.34698 4.1224,-1.10617c1.62823,0.27962 2.93778,1.54495 4.25314,2.54452c5.37636,4.08564 5.36755,13.65698 -0.06749,17.92012c-3.10807,2.43791 -7.9148,1.51323 -11.51748,1.51323l-3.11803,-1.26393c0,0 -2.23607,-1.11803 -1.11803,-3.3541c1.11803,-2.23607 3.3541,-1.11803 3.3541,-1.11803l0.88197,0.73607c2.15164,0 6.68567,1.01161 8.48252,-0.48677c3.07769,-2.56647 2.61924,-7.70226 -0.06749,-10.07988c-0.56758,-0.50228 -0.99788,-1.33941 -1.74686,-1.45548c-0.68499,-0.10615 -1.23112,0.64373 -1.8776,0.89383c-0.87996,0.34043 -1.80315,0.55813 -2.69219,0.87408c-1.76821,0.62839 -3.59417,2.7867 -5.27802,1.9584c-1.60591,-0.78996 -1.03599,-3.43723 -1.32036,-5.20419c-0.29658,-1.84283 0.34033,-3.75859 0.03228,-5.59954c-0.47198,-2.82062 -1.99848,-5.89336 -2.90399,-8.60989c0,0 -0.20284,-0.60851 -0.0948,-1.31182c-0.0218,-0.14842 -0.03349,-0.30773 -0.03349,-0.47875c0,-2.5 2.5,-2.5 2.5,-2.5c2.45868,0.01393 4.87274,0.66215 7.30546,1.01873c4.3862,0.64292 8.11618,-0.3029 12.48511,1.10956l0.20943,-0.12829c0,0 2.5,0 2.5,2.5z" fill="#000000" stroke="none" stroke-width="0.5"/></g></g></svg>