<svg version="1.1" xmlns="http://www.w3.org/2000/svg" xmlns:xlink="http://www.w3.org/1999/xlink" width="331.40971" height="191.97619" viewBox="0,0,331.40971,191.97619"><g transform="translate(89.64208,29.03018)"><g data-paper-data="{&quot;isPaintingLayer&quot;:true}" fill-rule="nonzero" stroke-linecap="butt" stroke-linejoin="miter" stroke-miterlimit="10" stroke-dasharray="" stroke-dashoffset="0" style="mix-blend-mode: normal"><path d="M-32.79806,161.94601v-189.97619h273.56569v189.97619z" fill="#ffffff" stroke="#000000" stroke-width="2"/><path d="M-89.64208,42.80071c0,-1.38071 1.11929,-2.5 2.5,-2.5c1.38071,0 2.5,1.11929 2.5,2.5c0,1.38071 -1.11929,2.5 -2.5,2.5c-1.38071,0 -2.5,-1.11929 -2.5,-2.5z" fill="#000000" stroke="none" stroke-width="0.5"/><path d="M96.85737,105.68275c-5.59132,-6.63762 -9.46524,-14.42814 -14.69646,-21.39152c-3.89553,-5.18541 -12.93427,-17.44926 -12.58897,-23.66475c0.05082,-0.91476 1.23487,-1.41774 1.52459,-2.28689c0.28972,-0.86915 -0.35574,-1.98197 0.15246,-2.74427c3.99374,-5.99061 13.3797,-7.80105 19.75592,-9.39758c11.91446,-2.98323 24.34758,-3.86811 36.64326,-4.20465c2.0098,-0.05501 6.54544,-2.20809 9.849,-2.6264c6.88589,-0.87193 15.16041,-6.82637 20.02432,2.90147c6.79497,13.58995 -10.45681,14.92627 -17.52614,16.79996c-1.09053,0.28904 -2.01991,1.16238 -3.29281,1.13329c-2.51999,-0.05758 -5.2165,1.71748 -7.82332,1.79168c-0.9815,0.02794 -1.96347,0.02637 -2.94559,0.01493c0.77404,0.24881 1.55171,0.47492 2.33696,0.63824c12.12872,2.52262 23.20841,12.12973 27.29546,24.02581c2.29489,6.67969 2.22634,13.89509 4.05931,20.68388c2.62247,9.71285 2.27175,15.68121 0.26505,25.31678c-0.00696,0.03341 -0.01361,0.0673 -0.01997,0.10163c0.01325,0.21067 0.01997,0.4231 0.01997,0.63711c0,0.73103 -0.07844,1.44373 -0.22736,2.13016c-0.97618,4.49948 -4.98081,7.86984 -9.77264,7.86984c-3.25429,0 -6.14551,-1.55449 -7.97162,-3.96144c-0.29804,-0.30786 -0.56044,-0.65113 -0.77838,-1.03856c-3.29865,-5.86416 0.57601,-10.08055 0.7198,-15.81517c0.13327,-5.31525 -1.50174,-9.83144 -2.46383,-14.95897c-2.10994,-11.24516 -1.71723,-13.4969 -8.53913,-22.11386c-3.35388,-4.23638 -13.70077,-3.43585 -16.82702,-6.39557c-0.49873,-0.47217 -5.02903,-8.32902 -5,-8.75c0.13721,-1.98961 2.02145,-3.43952 2.9684,-5.1947c0.32506,-0.6025 0.49827,-1.4016 0.8469,-2.13742c-1.50713,0.32809 -3.00967,0.65532 -4.52978,0.85596c-4.09959,0.54112 -7.8237,0.46377 -11.73063,1.51779c-0.4049,0.10924 -2.52965,0.31765 -2.70913,0.57558c-0.60269,0.86615 4.05215,5.97258 4.40118,6.4496c4.37564,5.98016 7.99524,12.42282 12.33113,18.3525c1.22022,1.66876 4.79282,4.87454 4.31654,6.62089c0.20679,0.80109 0.31679,1.64109 0.31679,2.50678c0,5.52285 -4.47715,10 -10,10c-0.98938,0.76601 -2.78345,0.02493 -4.46533,-1.04988c-1.14491,-0.57232 -2.16465,-1.35786 -3.0072,-2.30457c-0.44981,-0.40225 -0.77483,-0.72516 -0.91173,-0.88768z" fill="#000000" stroke="none" stroke-width="0.5"/></g></g></svg>