<svg version="1.1" xmlns="http://www.w3.org/2000/svg" xmlns:xlink="http://www.w3.org/1999/xlink" width="171.1579" height="121.80012" viewBox="0,0,171.1579,121.80012"><g transform="translate(-153.46353,-83.19988)"><g data-paper-data="{&quot;isPaintingLayer&quot;:true}" fill-rule="nonzero" stroke-linecap="butt" stroke-linejoin="miter" stroke-miterlimit="10" stroke-dasharray="" stroke-dashoffset="0" style="mix-blend-mode: normal"><path d="M216,204v-48h48v48z" fill="#abff00" stroke="#000000" stroke-width="2"/><path d="M153.48043,149.88394c-0.24447,-2.48802 2.24355,-2.73248 2.24355,-2.73248l1.99041,-0.19557c3.08018,-0.30265 5.26401,-0.37189 8.08484,-1.6703c3.34201,-1.00201 1.73995,-2.85488 2.96781,-6.04586c0.38474,-0.99988 1.29309,-1.76456 1.58738,-2.7947c1.12254,-3.9294 -3.01371,-4.64056 -5.27272,-5.54071c-3.22726,-1.28596 -6.34773,-3.48445 -7.96749,-6.70825c-2.00101,-3.98262 0.09945,-4.77372 1.3443,-8.05903c0.85004,-2.24334 1.43414,-4.90502 3.32314,-6.3838c4.05568,-3.17495 11.55747,-4.66346 16.39799,-5.97148c0,0 2.41398,-0.65017 3.06414,1.76381c0.65017,2.41398 -1.76381,3.06415 -1.76381,3.06415c-2.88907,0.77541 -5.72991,1.73625 -8.52758,2.79505c-2.04637,0.77447 -4.32043,1.10731 -6.13878,2.32429c-1.66594,1.11499 -0.98056,2.37663 -1.67024,4.15499c-0.2982,0.76891 -2.38571,2.86207 -1.46309,4.27461c0.69057,1.05728 1.63442,1.94868 2.62594,2.73074c3.03192,2.39141 6.30669,1.24158 8.90629,4.65319c1.40077,1.83831 2.49246,5.5571 2.04612,7.87646c-0.25191,1.30901 -1.332,2.32206 -1.80673,3.56769c-0.65402,1.7161 -0.73336,5.56364 -1.81397,6.87974c-0.90711,1.10479 -2.5342,1.32345 -3.8013,1.98517c-3.3589,1.46241 -6.02227,1.72546 -9.63332,2.08027l-1.99041,0.19557c0,0 -2.48802,0.24447 -2.73248,-2.24355z" fill="#ffffff" stroke="none" stroke-width="0.5"/><path d="M188.44516,127.3569c-0.16494,-1.67865 0.91398,-2.336 1.63339,-2.58605c-1.03218,-4.3383 -1.84015,-8.69316 -1.7911,-13.0817c-0.40798,-0.458 -0.68783,-1.14294 -0.45908,-2.14788c0.13624,-0.59852 0.38598,-1.01664 0.68527,-1.30685c0.02426,-0.19751 0.05056,-0.39509 0.07899,-0.59275c0,0 0.36627,-2.47303 2.83929,-2.10676c2.09529,0.31032 2.15241,2.13297 2.12097,2.68252c3.34149,0.63108 6.86244,1.18518 9.92027,2.34366c1.12389,0.4258 2.05944,1.26565 3.1812,1.69706c2.06932,0.79582 4.29324,1.47086 5.98232,2.90696c2.57994,2.19353 4.54371,3.18075 3.2851,7.43889c-0.44803,1.51579 -1.66096,2.83956 -3.00904,3.6648c-0.4522,0.27682 -5.97993,0.78417 -6.90476,0.86967c-1.88614,0.17435 -3.64651,1.02762 -5.47808,1.51064c-0.16141,0.04257 -2.50136,0.27834 -4.30534,0.45632c1.15333,4.38705 2.28273,8.61991 2.74206,13.29474l0.09779,0.99521c0,0 0.24447,2.48802 -2.24355,2.73248c-2.48802,0.24447 -2.73248,-2.24355 -2.73248,-2.24355l-0.09779,-0.99521c-0.43574,-4.43469 -1.56436,-8.86165 -2.70388,-13.29934l-0.10905,0.01071c0,0 -2.48802,0.24447 -2.73248,-2.24355zM205.51904,122.16241c0.73931,-0.07641 5.28094,0.26124 5.61837,-1.01096c0.32936,-1.24178 -2.50304,-3.20562 -3.37323,-3.60408c-0.88499,-0.40524 -1.94731,-0.2577 -2.85684,-0.60438c-1.12304,-0.42805 -2.06052,-1.26286 -3.1812,-1.69706c-2.58062,-0.99983 -5.57161,-1.50185 -8.45664,-2.01606c0.15055,1.77467 0.61379,3.40488 1.23112,6.15031c0.35165,1.56389 0.32206,3.19638 0.53861,4.78342c3.61239,-0.52704 6.8164,-1.62258 10.4798,-2.0012z" fill="#ffffff" stroke="none" stroke-width="0.5"/><path d="M239.52417,137.19981c-0.55486,2.43765 -2.99251,1.88279 -2.99251,1.88279l-3.62862,-0.89454c-5.01123,-3.97118 -10.446,-5.98484 -13.30368,-12.09309c-0.35343,-0.79207 -2.73187,-6.03855 -2.78212,-6.54991c-0.12891,-1.31199 0.48213,-2.59239 0.75222,-3.88273c0.68729,-3.2835 1.69123,-8.14067 3.24331,-10.98078c2.99723,-5.48456 10.68542,-8.76172 15.77307,-3.67592c3.30789,3.30669 1.83335,7.84376 1.64826,11.71792c-0.05441,1.13875 0.51582,2.30356 0.24622,3.41127c-0.79684,3.27401 -4.60028,8.17344 -7.77909,9.47437c-1.45786,0.59663 -3.12755,0.37916 -4.69133,0.56874c0,0 -0.28223,0.02773 -0.66592,-0.03054c2.43654,3.32409 6.54743,4.79387 9.7592,7.55076l2.53819,0.50916c0,0 2.43765,0.55486 1.88279,2.99251zM223.42003,122.6866c0.51512,-1.3289 2.10094,-1.48471 2.10094,-1.48471c3.35461,-0.21905 7.26061,-2.13131 8.05514,-6.0411c0.17143,-0.8436 -0.37465,-1.69981 -0.3405,-2.55997c0.10114,-2.54747 2.10317,-8.34102 -2.14682,-9.13566c-5.51807,-1.03174 -7.00354,6.72009 -7.96734,10.3243c-0.46772,1.74906 -1.50521,3.46482 -1.32816,5.26667c0.13023,1.3254 0.91656,2.46523 1.62675,3.63048z" fill="#ffffff" stroke="none" stroke-width="0.5"/><path d="M277.47287,143.72966c0.24447,2.48802 -2.24355,2.73248 -2.24355,2.73248l-3.29145,0.30459c-1.57948,-0.23653 -3.1995,-0.28252 -4.73844,-0.70959c-7.42143,-2.05953 -13.2457,-10.66822 -17.07917,-16.76526c-2.25503,-5.14967 -2.89964,-9.33399 -0.17892,-14.39495c0.69747,-1.29739 1.11879,-2.83122 2.19833,-3.83335c2.1854,-2.02871 4.67177,-1.97956 7.33348,-2.24109c5.16357,-0.50736 13.55074,0.12882 15.20723,6.71328c0.64842,2.57744 -1.36416,6.46987 -3.49167,7.88657c-5.12479,3.41257 -11.64092,2.47608 -17.41565,1.56579c0.21102,0.6615 0.46651,1.31323 0.75734,1.9478c4.18206,6.64179 9.34819,13.6392 17.53017,14.83231l2.6798,-0.28213c0,0 2.48802,-0.24447 2.73248,2.24355zM253.18009,119.83445c4.19537,0.65909 7.77788,1.36272 12.14038,0.49012c0.87646,-0.17531 5.21329,-1.42682 4.49281,-3.6437c-1.17541,-3.61663 -7.29683,-3.13332 -9.85119,-2.88233c-0.80884,0.07947 -3.60708,0.06012 -4.41343,0.92276c-1.43118,1.53109 -2.1572,3.2871 -2.36857,5.11315z" fill="#ffffff" stroke="none" stroke-width="0.5"/><path d="M320.43975,157.83173c-2.33468,-0.89402 -1.44066,-3.2287 -1.44066,-3.2287l0.6463,-0.94972c-0.31578,-3.21381 -0.96728,-6.36383 -1.8296,-9.46882c-0.05393,0.38381 -0.10363,0.76712 -0.13927,1.14934c-0.18507,1.9848 0.17018,4.14099 -0.68714,5.94063c-0.70497,1.47982 -2.3264,2.34116 -3.6909,3.24945c-10.00222,6.65811 -20.22703,-3.43229 -23.77592,-12.18867c-0.56244,-1.38774 -1.66851,-2.75437 -1.48316,-4.24024c0.25058,-2.00881 5.48307,-6.46994 6.503,-7.26064c2.21713,-1.71882 4.71057,-3.19652 7.3903,-4.0266c0.16481,-0.05105 2.83283,-0.32566 5.43506,-0.58528c-0.88063,-2.17701 -1.82564,-4.31033 -2.91649,-6.31678c-2.12642,-3.9112 -5.27229,-7.38725 -7.17401,-11.41417c-2.88451,-6.10803 -3.38959,-12.88319 -4.07963,-19.48362l0.00122,-0.00772l-0.00197,0.00019l-0.30066,-3.05546c-0.00001,-0.00014 -0.00003,-0.00028 -0.00004,-0.00041c-0.13501,-1.37409 0.86946,-2.59747 2.24355,-2.73248c0.56917,-0.05593 1.11248,0.08366 1.56329,0.36403l4.2526,2.58137l-0.02239,0.03689c0.20687,0.13793 0.40741,0.2864 0.6006,0.44712c1.47256,1.22506 1.64599,3.45954 2.44499,5.20046c0.06082,0.13251 4.10497,9.20076 4.12615,9.25604c2.38263,6.21793 3.70277,12.80547 6.08898,19.02851c4.12743,10.76398 9.29234,21.48539 10.42746,33.03793l-0.95297,3.22669c0,0 -0.89402,2.33468 -3.2287,1.44066zM309.16778,130.87589c-1.95568,0.05018 -3.90402,0.13443 -5.75562,0.70799c-3.51658,1.0893 -6.62257,4.07153 -9.28545,6.37825c-0.34929,0.30257 -1.12452,0.33822 -1.13205,0.80028c-0.01024,0.62835 0.80789,0.9759 1.09397,1.53543c1.99321,3.89835 2.93462,5.67434 6.25251,8.4519c2.13299,1.78563 2.32034,2.76304 4.93319,2.83122c1.5354,0.04006 6.52694,-0.61745 7.28792,-2.63037c0.47479,-1.25591 0.04151,-2.68617 0.13105,-4.02585c0.09802,-1.46667 0.66064,-2.93673 0.43132,-4.38867c-0.22932,-1.45194 -1.17526,-2.69474 -1.76289,-4.04211c-0.76147,-1.8254 -1.47517,-3.71608 -2.19393,-5.61807zM306.73414,114.13227c-2.59594,-7.60377 -4.9537,-15.20917 -8.25843,-22.59575c0.50311,5.03709 1.11246,10.16029 3.29887,14.77005c1.30666,2.75492 3.21419,5.25896 4.95956,7.8257z" fill="#ffffff" stroke="none" stroke-width="0.5"/><path d="M238.70645,198.63907c0,-2.5 2.5,-2.5 2.5,-2.5h2c3.89057,0 6.38091,0.58355 9.23223,-2.26777c0.97737,-0.97737 3.5154,-2.99065 1.781,-4.71475c-1.2997,-1.29198 -2.78838,-2.39621 -4.32756,-3.39086c-2.30479,-1.4894 -6.0485,-1.00548 -9.47046,-0.25132l0.14432,0.22271l-2.56041,1.65916c-0.39744,0.26631 -0.87552,0.42164 -1.38987,0.42164c-1.38071,0 -2.5,-1.11929 -2.5,-2.5c0,-0.72183 0.30592,-1.37221 0.79518,-1.82856l3.64265,-3.41499c2.43179,-2.2798 4.61377,-4.85948 7.29537,-6.83941c0.85414,-0.63065 2.1419,-0.61322 2.86606,-1.38966c0.36544,-0.39183 -1.08092,0.14168 -1.6069,0.03959c-1.82994,-0.35521 -3.47026,-1.43267 -5.30208,-1.77807c-3.53876,-0.66725 -6.89904,2.30419 -10.12678,2.98717c-1.4587,0.30866 -2.98185,0.03007 -4.47277,0.04511c0,0 -2.5,0 -2.5,-2.5c0,-2.5 2.5,-2.5 2.5,-2.5c4.52629,0.05789 7.26627,-2.24828 11.59168,-2.96643c2.94024,-0.48817 7.99396,0.53518 10.5067,2.22064c1.65211,1.10818 4.40069,2.05025 4.3931,4.03959c-0.00893,2.34089 -2.85317,3.71897 -4.42931,5.44975c-0.97012,1.0653 -2.01029,2.06157 -3.07508,3.03357c0.98826,0.05218 1.84511,0.14847 2.41337,0.25517c2.33362,0.43817 4.34176,2.03703 6.18452,3.53436c3.05183,2.47977 4.83808,2.07409 4.91503,6.93336c0.0545,3.44175 -1.6594,4.69493 -3.73223,6.76777c-2.50162,2.50162 -2.53011,2.97946 -6.36731,3.69995c-0.22248,0.04177 -5.95267,0.03228 -6.40046,0.03228h-2c0,0 -2.5,0 -2.5,-2.5z" fill="#000000" stroke="none" stroke-width="0.5"/></g></g></svg>